<?xml version="1.0" encoding="utf-8"?>
<!-- Generator: Adobe Illustrator 27.3.1, SVG Export Plug-In . SVG Version: 6.00 Build 0)  -->
<svg version="1.1" id="Layer_1" xmlns="http://www.w3.org/2000/svg" xmlns:xlink="http://www.w3.org/1999/xlink" x="0px" y="0px"
	 viewBox="0 0 800 800" style="enable-background:new 0 0 800 800;" xml:space="preserve">
<style type="text/css">
	.st0{fill:url(#SVGID_1_);}
	.st1{fill:#34B3F1;stroke:#8C1A93;stroke-width:0.25;stroke-miterlimit:10;}
</style>
<linearGradient id="SVGID_1_" gradientUnits="userSpaceOnUse" x1="150.3085" y1="166.4155" x2="786.4433" y2="-30.1242" gradientTransform="matrix(1 0 0 1 0 300)">
	<stop  offset="0" style="stop-color:#34B3F1"/>
	<stop  offset="4.422938e-03" style="stop-color:#37B0ED"/>
	<stop  offset="2.560000e-02" style="stop-color:#41A7E2"/>
	<stop  offset="5.530000e-02" style="stop-color:#47A2DB"/>
	<stop  offset="0.1379" style="stop-color:#49A1D9"/>
	<stop  offset="0.1394" style="stop-color:#6987B5"/>
	<stop  offset="0.1412" style="stop-color:#8C6A8F"/>
	<stop  offset="0.1431" style="stop-color:#AA526E"/>
	<stop  offset="0.1452" style="stop-color:#C23E53"/>
	<stop  offset="0.1475" style="stop-color:#D52F3E"/>
	<stop  offset="0.15" style="stop-color:#E2242F"/>
	<stop  offset="0.1531" style="stop-color:#EA1E27"/>
	<stop  offset="0.1579" style="stop-color:#EC1C24"/>
	<stop  offset="0.2926" style="stop-color:#E91C28"/>
	<stop  offset="0.4191" style="stop-color:#DF1C33"/>
	<stop  offset="0.5425" style="stop-color:#CF1B46"/>
	<stop  offset="0.6638" style="stop-color:#B81B61"/>
	<stop  offset="0.7827" style="stop-color:#9A1B83"/>
	<stop  offset="0.881" style="stop-color:#7D1AA5"/>
	<stop  offset="0.8921" style="stop-color:#7F1AA3"/>
	<stop  offset="0.8962" style="stop-color:#841A9C"/>
	<stop  offset="0.8986" style="stop-color:#8C1A93"/>
	<stop  offset="1" style="stop-color:#6F1AB6"/>
</linearGradient>
<path class="st0" d="M720.1,395.3c0,0-22.2-115-83.3-203.5S438.3,82.2,434.8,77.2c-3.7-5-17.2-19.7-26.3-23.4
	c-9-3.7-22.2-39.6-22.2-39.6c-5.5,44.9,14.5,49.9,20,54.3s11.8,14,14.1,25.6s52.5,116.8,54,135.2c1.3,18.4-60.7,17.5-61.5,18
	c24.4-19.7,16.7-82.2,16.7-82.2s5.5-0.9,4-1.8c2.2-14.4-17.2-49-17.2-49l4-1.3c-3.7-6.3-26.3-27.4-51.6-40c-25.3-12.5-48.1-9-48.1-9
	s1.8-6.8,25.3-26s31.7-41.3,29.4-37.8c-2.2,3.7-34.9,31.9-46.6,39.1c-11.8,7.2-33.6,26-36.7,29.3c-5.5-10.3,2.7-25.2,1.3-24.3
	C275.3,54.3,283,75.9,283,75.9s-2.7,2.7-20,15.3c-17.2,12.5-22.2,45.3-25.9,37.8c-3.7-7.7,0-21.2-0.9-21.6
	c-12.3,11.6-5.9,33.7-5.9,35c-14.5,12.1-1.8,32.8-1.8,32.8c0.8-1.4,2.1-2.5,3.5-3.4l0.1,0.4l8.5,4.8l-1.6-7.4l12,6l-1.8-6.9v-0.1
	c3.4,0.1,5.7,0.4,5.7,0.4s-4.2-6,8.8-15.8c12.9-9.9,24.2-2.1,24.2-2.1c-8.5,0.7-14.2,13.2-13.8,16.2c0.3,3-8.5,11.1-13.6,12.9
	c-5.1,1.8-6.9,9.9-6.9,9.9l11.1,3l16.9-15.8l20.2-19.7c15.7-4.8,12,19.7,15.7,19.2c16.3,0.7,9-29.4,9.7-29.4
	c40.5,19.2,1.2,52.8,1.2,52.8l-53.7,18.6l5.5,3.7l-46.5,16.2c0,0,6.7,5.4,6.7,6.5c-62.2,27.6-19.3,103.1-19.3,103.1L164.1,281
	c0,0-4.8-12.5-22.3-18.6c-17.5-6-47.2,7.2-47.2,7.2l-8.5,10.7l3.7,12.5l7.3-13.2l20-1l-18.2,21.3l-1.8,14.4v13.6l9.7,10.2l-3.7-9.5
	l3.7-9.5l5.5,4.8l0.7,11.4l9,7.2l-3.7-15l12.7-10.2l26,3.7c0,0,67.7,113.3,84.5,117.4c16.9,4.2,41-38.9,41-38.9
	c14.5,10.2,119,28.7,100.2,35.3c-18.7,6.5-24.8,29.9-21.2,46.8c3.7,16.7,64,50.9,70,64.7c6,13.7-24.2,46.8-24.2,46.8s-35,3-36.8,3
	c-1,0-11.6-2.2-20.6-4c-3.1-3.4-5.9-6.9-7.8-10.3c-25.3-44.9-90-88-133.5-60.5c-43.5,27.6-45.9,57-43.5,90.4c2.4,33.4,35,76,35,76
	l1.8,16.2l-19.3,9l60.4,14.4l3.7,26.9L354.7,800l-54.3-79c0,0-50.7-13.2-52.5-13.7c-1.8-0.7-35.7-32.9-39.8-38.3
	c-4.2-5.4-57.3-128.8,32-125.8c37.1,1.3,57.2,25.2,77.3,53.3l-0.8,0.3c0,0-8.6,17.5-7.2,25.2c1.3,7.6,6.8,26.5,6.8,26.5l2.7-19.3
	l5-13.1l7.1-0.8c1.6,2.1,3.1,4.3,4.7,6.4c-2.6,2-5,3.8-5.9,5.1c-2.7,4-5.9,11.2-5.9,11.2l5.5,24.3l5-17.5l5-0.9l7.1-8.6
	c3,3.5,6,7.1,9.3,10.5c-1.8,2.2-3.1,3.8-3.1,4.2c0,1.3,3.1,16.6,3.1,16.6s-3.7,3.1-3.1,4.4c0.5,1.3,10.5,20.6,10.8,19.3
	c0.4-1.3,6.4-19.3,6.4-19.3l3.7-0.9c0,0,1.2-2.9,2.7-6.5c18.9,13.7,42.8,23.5,75.4,25.7c140.7,4.8,172.7-89.9,172.7-89.9l8.1-61.5
	h7.2l-24.4-57.5l7.2-4l-71.1-88.6l7.7-3.1l-58-32.4l4.6-5.4c0,0-56.6-22.5-58.9-22.9c1.8-14,14.9-20.6,21.7-21.6
	c62.6-0.4,116.9,90.8,116.9,90.8s-8.1-57.5,3.1-64.3c32.1-4,77.9,177.9,77.9,177.9l-15.8-115.5l68.8,239.5l-16.3-179.2
	c0,0,19.1,53.4,18.6,52.1c18.2,28.3,19.1,121.4,19.5,120.8C776.7,574.5,720.1,395.3,720.1,395.3z M448.1,586.7
	c0,0,35.7-31.1,42.3-41.9c6.7-10.7-27.2-38.4-27.2-38.4l53.2-19.7c0,0,85.2,56.3,35,120.4c-29.8,38-88.8,37.6-137.2,21.7
	c12.4-0.9,30-2.1,30-2.1l1.3-6.3l-5.9-5.5L448.1,586.7z"/>
<path class="st1" d="M267.6,119.5c0.5,0,1,0,1.4-0.1c1.3-0.4,2.1-1.6,2.7-2.7c0.3-0.4,0.4-0.8,0.7-1.2c0.4-0.7,0.8-1.4,1.2-2.2
	c0.4-0.8,0.4-1.6,0.1-2.4c-0.9,0-2,0-2.9,0c-0.4,0-0.9,0-1.3,0.1c-1,0.3-1.7,1-2.4,1.7c-0.5,0.7-1.2,1.2-1.7,1.8
	c-0.3,0.3-0.5,0.5-0.7,0.8c-0.3,0.4-1.2,2.9-0.9,3.4C264.3,119.9,266.7,119.5,267.6,119.5z"/>
</svg>
