<?xml version="1.0" encoding="utf-8"?>
<!-- Generator: Adobe Illustrator 27.3.1, SVG Export Plug-In . SVG Version: 6.00 Build 0)  -->
<svg version="1.1" id="Layer_1" xmlns="http://www.w3.org/2000/svg" xmlns:xlink="http://www.w3.org/1999/xlink" x="0px" y="0px"
	 viewBox="0 0 800 800" style="enable-background:new 0 0 800 800;" xml:space="preserve">
<style type="text/css">
	.st0{fill:#0C0C0C;}
	.st1{fill:url(#SVGID_1_);}
	.st2{fill:#34B3F1;stroke:#8C1A93;stroke-width:0.25;stroke-miterlimit:10;}
</style>
<g>
	<g>
		<g>
			
				<image style="overflow:visible;" width="243" height="243" xlink:href="7B59685A.png"  transform="matrix(1.8889 -1.8927 1.8516 1.8251 -30.1146 409.3727)">
			</image>
			<g>
				<polygon class="st0" points="794.5,393 394,794.3 1.5,407.3 402,6 				"/>
			</g>
		</g>
		<polygon class="st0" points="744.5,393.9 394.5,744.5 51.5,406.4 401.5,55.8 		"/>
	</g>
</g>
<linearGradient id="SVGID_1_" gradientUnits="userSpaceOnUse" x1="213.4284" y1="360.9428" x2="700.3789" y2="511.3907" gradientTransform="matrix(1 0 0 -1 0 800)">
	<stop  offset="0" style="stop-color:#34B3F1"/>
	<stop  offset="4.422938e-03" style="stop-color:#37B0ED"/>
	<stop  offset="2.560000e-02" style="stop-color:#41A7E2"/>
	<stop  offset="5.530000e-02" style="stop-color:#47A2DB"/>
	<stop  offset="0.1379" style="stop-color:#49A1D9"/>
	<stop  offset="0.1394" style="stop-color:#6987B5"/>
	<stop  offset="0.1412" style="stop-color:#8C6A8F"/>
	<stop  offset="0.1431" style="stop-color:#AA526E"/>
	<stop  offset="0.1452" style="stop-color:#C23E53"/>
	<stop  offset="0.1475" style="stop-color:#D52F3E"/>
	<stop  offset="0.15" style="stop-color:#E2242F"/>
	<stop  offset="0.1531" style="stop-color:#EA1E27"/>
	<stop  offset="0.1579" style="stop-color:#EC1C24"/>
	<stop  offset="0.2926" style="stop-color:#E91C28"/>
	<stop  offset="0.4191" style="stop-color:#DF1C33"/>
	<stop  offset="0.5425" style="stop-color:#CF1B46"/>
	<stop  offset="0.6638" style="stop-color:#B81B61"/>
	<stop  offset="0.7827" style="stop-color:#9A1B83"/>
	<stop  offset="0.881" style="stop-color:#7D1AA5"/>
	<stop  offset="0.8921" style="stop-color:#7F1AA3"/>
	<stop  offset="0.8962" style="stop-color:#841A9C"/>
	<stop  offset="0.8986" style="stop-color:#8C1A93"/>
	<stop  offset="1" style="stop-color:#6F1AB6"/>
</linearGradient>
<path class="st1" d="M649.6,384.6c0,0-17-88-63.8-155.8s-151.9-83.9-154.6-87.7c-2.8-3.8-13.2-15.1-20.1-17.9
	c-6.9-2.8-17-30.3-17-30.3c-4.2,34.4,11.1,38.2,15.3,41.6c4.2,3.4,9,10.7,10.8,19.6s40.2,89.4,41.3,103.5
	c1,14.1-46.5,13.4-47.1,13.8c18.7-15.1,12.8-62.9,12.8-62.9s4.2-0.7,3.1-1.4c1.7-11-13.2-37.5-13.2-37.5l3.1-1
	c-2.8-4.8-20.1-21-39.5-30.6s-36.8-6.9-36.8-6.9s1.4-5.2,19.4-19.9s24.3-31.6,22.5-28.9c-1.7,2.8-26.7,24.4-35.7,29.9
	c-9,5.5-25.7,19.9-28.1,22.4c-4.2-7.9,2.1-19.3,1-18.6c-13.9,7.6-8,24.1-8,24.1s-2.1,2.1-15.3,11.7c-13.2,9.6-17,34.7-19.8,28.9
	c-2.8-5.9,0-16.2-0.7-16.5c-9.4,8.9-4.5,25.8-4.5,26.8c-11.1,9.3-1.4,25.1-1.4,25.1c0.6-1.1,1.6-1.9,2.7-2.6l0.1,0.3l6.5,3.7
	l-1.2-5.7l9.2,4.6l-1.4-5.3l0-0.1c2.6,0.1,4.4,0.3,4.4,0.3s-3.2-4.6,6.7-12.1c9.9-7.6,18.5-1.6,18.5-1.6
	c-6.5,0.5-10.9,10.1-10.6,12.4c0.2,2.3-6.5,8.5-10.4,9.9s-5.3,7.6-5.3,7.6l8.5,2.3l12.9-12.1l15.5-15.1c12-3.7,9.2,15.1,12,14.7
	c12.5,0.5,6.9-22.5,7.4-22.5c31,14.7,0.9,40.4,0.9,40.4l-41.1,14.2l4.2,2.8l-35.6,12.4c0,0,5.1,4.1,5.1,5
	c-47.6,21.1-14.8,78.9-14.8,78.9l-43.5-51.4c0,0-3.7-9.6-17.1-14.2s-36.1,5.5-36.1,5.5l-6.5,8.2l2.8,9.6l5.6-10.1l15.3-0.8
	l-13.9,16.3l-1.4,11V333l7.4,7.8l-2.8-7.3l2.8-7.3l4.2,3.7l0.5,8.7l6.9,5.5l-2.8-11.5l9.7-7.8l19.9,2.8c0,0,51.8,86.7,64.7,89.9
	c12.9,3.2,31.4-29.8,31.4-29.8c11.1,7.8,91.1,22,76.7,27c-14.3,5-19,22.9-16.2,35.8c2.8,12.8,49,39,53.6,49.5
	c4.6,10.5-18.5,35.8-18.5,35.8s-26.8,2.3-28.2,2.3c-0.8,0-8.9-1.7-15.8-3.1c-2.4-2.6-4.5-5.3-6-7.9c-19.4-34.4-68.9-67.4-102.2-46.3
	s-35.1,43.6-33.3,69.2s26.8,58.2,26.8,58.2l1.4,12.4l-14.8,6.9l46.2,11l2.8,20.6l82.8,35.3l-41.6-60.5c0,0-38.8-10.1-40.2-10.5
	c-1.4-0.5-27.3-25.2-30.5-29.3c-3.2-4.1-43.9-98.6,24.5-96.3c28.4,1,43.8,19.3,59.2,40.8l-0.6,0.2c0,0-6.6,13.4-5.5,19.3
	c1,5.8,5.2,20.3,5.2,20.3l2.1-14.8l3.8-10l5.4-0.6c1.2,1.6,2.4,3.3,3.6,4.9c-2,1.5-3.8,2.9-4.5,3.9c-2.1,3.1-4.5,8.6-4.5,8.6
	l4.2,18.6l3.8-13.4l3.8-0.7l5.4-6.6c2.3,2.7,4.6,5.4,7.1,8c-1.4,1.7-2.4,2.9-2.4,3.2c0,1,2.4,12.7,2.4,12.7s-2.8,2.4-2.4,3.4
	c0.4,1,8,15.8,8.3,14.8s4.9-14.8,4.9-14.8l2.8-0.7c0,0,0.9-2.2,2.1-5c14.5,10.5,32.8,18,57.7,19.7c107.7,3.7,132.2-68.8,132.2-68.8
	l6.2-47.1h5.5l-18.7-44l5.5-3.1l-54.4-67.8l5.9-2.4l-44.4-24.8l3.5-4.1c0,0-43.3-17.2-45.1-17.5c1.4-10.7,11.4-15.8,16.6-16.5
	c47.9-0.3,89.5,69.5,89.5,69.5s-6.2-44,2.4-49.2c24.6-3.1,59.6,136.2,59.6,136.2l-12.1-88.4l52.7,183.3l-12.5-137.2
	c0,0,14.6,40.9,14.2,39.9c13.9,21.7,14.6,92.9,14.9,92.5C692.9,521.8,649.6,384.6,649.6,384.6z M441.4,531.1
	c0,0,27.3-23.8,32.4-32.1c5.1-8.2-20.8-29.4-20.8-29.4l40.7-15.1c0,0,65.2,43.1,26.8,92.2c-22.8,29.1-68,28.8-105,16.6
	c9.5-0.7,23-1.6,23-1.6l1-4.8l-4.5-4.2L441.4,531.1z"/>
<path class="st2" d="M303.2,173.5c0.4,0,0.8,0,1.1-0.1c1-0.3,1.6-1.2,2.1-2.1c0.2-0.3,0.3-0.6,0.5-0.9c0.3-0.5,0.6-1.1,0.9-1.7
	s0.3-1.2,0.1-1.8c-0.7,0-1.5,0-2.2,0c-0.3,0-0.7,0-1,0.1c-0.8,0.2-1.3,0.8-1.8,1.3c-0.4,0.5-0.9,0.9-1.3,1.4
	c-0.2,0.2-0.4,0.4-0.5,0.6c-0.2,0.3-0.9,2.2-0.7,2.6C300.7,173.8,302.5,173.5,303.2,173.5z"/>
</svg>
